<svg xmlns="http://www.w3.org/2000/svg" width="38" height="38" viewBox="0 0 38 38">
  <metadata><?xpacket begin="﻿" id="W5M0MpCehiHzreSzNTczkc9d"?>
<x:xmpmeta xmlns:x="adobe:ns:meta/" x:xmptk="Adobe XMP Core 5.6-c142 79.160924, 2017/07/13-01:06:39        ">
   <rdf:RDF xmlns:rdf="http://www.w3.org/1999/02/22-rdf-syntax-ns#">
      <rdf:Description rdf:about=""/>
   </rdf:RDF>
</x:xmpmeta>
                                                                                                    
                                                                                                    
                                                                                                    
                                                                                                    
                                                                                                    
                                                                                                    
                                                                                                    
                                                                                                    
                                                                                                    
                                                                                                    
                                                                                                    
                                                                                                    
                                                                                                    
                                                                                                    
                                                                                                    
                                                                                                    
                                                                                                    
                                                                                                    
                                                                                                    
                                                                                                    
                           
<?xpacket end="w"?></metadata>
<defs>
    <style>
      .cls-1 {
        fill: #141414;
        fill-rule: evenodd;
      }
    </style>
  </defs>
  <path id="ig" class="cls-1" d="M1505,72a19,19,0,1,1,19-19A19,19,0,0,1,1505,72Zm9-23.5a4.5,4.5,0,0,0-4.5-4.5h-9a4.5,4.5,0,0,0-4.5,4.5v9a4.5,4.5,0,0,0,4.5,4.5h9a4.5,4.5,0,0,0,4.5-4.5v-9Zm-3.15,0a1.35,1.35,0,1,1,1.35-1.35A1.347,1.347,0,0,1,1510.85,48.5ZM1505,58.4a5.4,5.4,0,1,1,5.4-5.4A5.4,5.4,0,0,1,1505,58.4Zm0-8.1a2.7,2.7,0,1,0,2.7,2.7A2.7,2.7,0,0,0,1505,50.3Z" transform="translate(-1486 -34)"/>
</svg>
