<svg xmlns="http://www.w3.org/2000/svg" width="38" height="38" viewBox="0 0 38 38">
  <metadata><?xpacket begin="﻿" id="W5M0MpCehiHzreSzNTczkc9d"?>
<x:xmpmeta xmlns:x="adobe:ns:meta/" x:xmptk="Adobe XMP Core 5.6-c142 79.160924, 2017/07/13-01:06:39        ">
   <rdf:RDF xmlns:rdf="http://www.w3.org/1999/02/22-rdf-syntax-ns#">
      <rdf:Description rdf:about=""/>
   </rdf:RDF>
</x:xmpmeta>
                                                                                                    
                                                                                                    
                                                                                                    
                                                                                                    
                                                                                                    
                                                                                                    
                                                                                                    
                                                                                                    
                                                                                                    
                                                                                                    
                                                                                                    
                                                                                                    
                                                                                                    
                                                                                                    
                                                                                                    
                                                                                                    
                                                                                                    
                                                                                                    
                                                                                                    
                                                                                                    
                           
<?xpacket end="w"?></metadata>
<defs>
    <style>
      .cls-1 {
        fill: #141414;
        fill-rule: evenodd;
      }
    </style>
  </defs>
  <path id="vk" class="cls-1" d="M1437,33a19,19,0,1,1-19,19A19,19,0,0,1,1437,33Zm9.67,25.263c-0.03-.058-0.05-0.106-0.07-0.145a11.542,11.542,0,0,0-2.18-2.556l-0.02-.023-0.01-.011-0.01-.012h-0.01q-0.735-.706-0.93-0.949a0.933,0.933,0,0,1-.16-0.937,9.693,9.693,0,0,1,1.03-1.515c0.31-.408.56-0.736,0.74-0.983q1.965-2.66,1.71-3.4l-0.07-.115a0.717,0.717,0,0,0-.35-0.191,1.785,1.785,0,0,0-.73-0.029l-3.28.023a0.429,0.429,0,0,0-.23.006l-0.15.035-0.05.029-0.05.035a0.394,0.394,0,0,0-.12.121,0.688,0.688,0,0,0-.12.2,17.727,17.727,0,0,1-1.22,2.6c-0.28.478-.53,0.893-0.77,1.243a5.482,5.482,0,0,1-.59.775,4.179,4.179,0,0,1-.43.4,0.419,0.419,0,0,1-.3.127c-0.07-.016-0.13-0.031-0.19-0.046a0.792,0.792,0,0,1-.26-0.283,1.327,1.327,0,0,1-.13-0.451,4.69,4.69,0,0,1-.04-0.468c0-.131,0-0.316.01-0.555s0.01-.4.01-0.486c0-.293,0-0.611.01-0.955s0.03-.615.03-0.815,0.01-.412.01-0.636a2.452,2.452,0,0,0-.04-0.526,1.6,1.6,0,0,0-.11-0.37,0.7,0.7,0,0,0-.24-0.278,1.293,1.293,0,0,0-.38-0.156,10.781,10.781,0,0,0-4.26.127,1.678,1.678,0,0,0-.43.347c-0.13.169-.15,0.262-0.05,0.277a1.382,1.382,0,0,1,.96.5l0.07,0.139a2.24,2.24,0,0,1,.16.532,5.226,5.226,0,0,1,.1.844,8.658,8.658,0,0,1,0,1.445c-0.04.4-.07,0.714-0.11,0.937a1.732,1.732,0,0,1-.15.544,1.519,1.519,0,0,1-.14.255,0.254,0.254,0,0,1-.05.058,0.843,0.843,0,0,1-.31.058,0.736,0.736,0,0,1-.39-0.162,2.686,2.686,0,0,1-.47-0.445,5.806,5.806,0,0,1-.55-0.792,12.517,12.517,0,0,1-.64-1.2l-0.18-.336c-0.11-.216-0.27-0.53-0.47-0.942s-0.37-.812-0.52-1.2a0.763,0.763,0,0,0-.27-0.37l-0.06-.034a0.872,0.872,0,0,0-.18-0.1,1.313,1.313,0,0,0-.26-0.075l-3.12.023a0.781,0.781,0,0,0-.65.22l-0.05.069a0.425,0.425,0,0,0-.03.185,0.841,0.841,0,0,0,.07.312c0.45,1.087.95,2.136,1.48,3.146s1,1.823,1.4,2.44,0.79,1.2,1.2,1.746,0.68,0.9.82,1.052,0.23,0.27.31,0.347l0.28,0.277a7.012,7.012,0,0,0,.81.665,12.9,12.9,0,0,0,1.17.764,6.346,6.346,0,0,0,1.5.613,5.043,5.043,0,0,0,1.66.191h1.31a0.911,0.911,0,0,0,.6-0.255l0.04-.058a0.908,0.908,0,0,0,.09-0.214,1.066,1.066,0,0,0,.04-0.318,4.146,4.146,0,0,1,.07-0.9,2.19,2.19,0,0,1,.2-0.6,1.417,1.417,0,0,1,.24-0.341,1.3,1.3,0,0,1,.19-0.168,0.558,0.558,0,0,1,.1-0.041,0.712,0.712,0,0,1,.64.179,3.507,3.507,0,0,1,.69.671q0.33,0.4.78,0.9a5.591,5.591,0,0,0,.8.74l0.23,0.139a2.731,2.731,0,0,0,.59.255,1.257,1.257,0,0,0,.64.057l2.91-.046a1.294,1.294,0,0,0,.67-0.145,0.554,0.554,0,0,0,.28-0.318,0.74,0.74,0,0,0,.01-0.393A1.44,1.44,0,0,0,1446.67,58.263Z" transform="translate(-1418 -33)"/>
</svg>
