<svg xmlns="http://www.w3.org/2000/svg" width="37" height="37" viewBox="0 0 37 37">
  <metadata><?xpacket begin="﻿" id="W5M0MpCehiHzreSzNTczkc9d"?>
<x:xmpmeta xmlns:x="adobe:ns:meta/" x:xmptk="Adobe XMP Core 5.6-c142 79.160924, 2017/07/13-01:06:39        ">
   <rdf:RDF xmlns:rdf="http://www.w3.org/1999/02/22-rdf-syntax-ns#">
      <rdf:Description rdf:about=""/>
   </rdf:RDF>
</x:xmpmeta>
                                                                                                    
                                                                                                    
                                                                                                    
                                                                                                    
                                                                                                    
                                                                                                    
                                                                                                    
                                                                                                    
                                                                                                    
                                                                                                    
                                                                                                    
                                                                                                    
                                                                                                    
                                                                                                    
                                                                                                    
                                                                                                    
                                                                                                    
                                                                                                    
                                                                                                    
                                                                                                    
                           
<?xpacket end="w"?></metadata>
<defs>
    <style>
      .cls-1 {
        fill: #141414;
        fill-rule: evenodd;
      }
    </style>
  </defs>
  <path id="wa" class="cls-1" d="M1572.5,71A18.5,18.5,0,1,1,1591,52.5,18.5,18.5,0,0,1,1572.5,71Zm0-28h0a9.492,9.492,0,0,0-7.69,15.068l-1.19,3.529,3.66-1.167A9.4,9.4,0,0,0,1572.5,62,9.5,9.5,0,1,0,1572.5,43Zm3.67,14.756c-0.5.106-1.15,0.19-3.33-.715a11.918,11.918,0,0,1-4.73-4.177A5.376,5.376,0,0,1,1566.98,50a3.029,3.029,0,0,1,.97-2.312,1.384,1.384,0,0,1,.97-0.341c0.12,0,.23.006,0.32,0.011a0.547,0.547,0,0,1,.6.469c0.23,0.552.79,1.915,0.86,2.055a0.574,0.574,0,0,1,.04.514,1.677,1.677,0,0,1-.31.436c-0.14.162-.27,0.285-0.41,0.458a0.436,0.436,0,0,0-.11.591,8.415,8.415,0,0,0,1.54,1.915,6.961,6.961,0,0,0,2.23,1.374,0.6,0.6,0,0,0,.67-0.106c0.21-.229.47-0.609,0.74-0.983a0.529,0.529,0,0,1,.68-0.207c0.26,0.089,1.61.76,1.89,0.9a1.287,1.287,0,0,1,.53.324,2.312,2.312,0,0,1-.16,1.318A2.686,2.686,0,0,1,1576.17,57.756Z" transform="translate(-1554 -34)"/>
</svg>
